<?xml version="1.0" encoding="utf-8"?>
<!-- Generator: Adobe Illustrator 24.0.0, SVG Export Plug-In . SVG Version: 6.00 Build 0)  -->
<svg version="1.1" id="Layer_1" xmlns="http://www.w3.org/2000/svg" xmlns:xlink="http://www.w3.org/1999/xlink" x="0px" y="0px"
	 viewBox="0 0 310 414" style="enable-background:new 0 0 310 414;" xml:space="preserve">
<style type="text/css">
	.st0{fill:#FFFFFF;}
	.st1{display:none;fill:none;stroke:#FFFFFF;stroke-miterlimit:10;}
</style>
<g>
	<g>
		<g>
			<circle class="st0" cx="5.1" cy="-168.9" r="4.9"/>
		</g>
		<g>
			<circle class="st0" cx="26.5" cy="-168.9" r="4.9"/>
		</g>
		<g>
			<circle class="st0" cx="47.9" cy="-168.9" r="4.9"/>
		</g>
		<g>
			<circle class="st0" cx="69.3" cy="-168.9" r="4.9"/>
		</g>
		<g>
			<circle class="st0" cx="90.7" cy="-168.9" r="4.9"/>
		</g>
		<g>
			<circle class="st0" cx="112.1" cy="-168.9" r="4.9"/>
		</g>
		<g>
			<circle class="st0" cx="133.4" cy="-168.9" r="4.9"/>
		</g>
		<g>
			<circle class="st0" cx="154.8" cy="-168.9" r="4.9"/>
		</g>
		<g>
			<circle class="st0" cx="176.2" cy="-168.9" r="4.9"/>
		</g>
		<g>
			<circle class="st0" cx="197.6" cy="-168.9" r="4.9"/>
		</g>
		<g>
			<circle class="st0" cx="219" cy="-168.9" r="4.9"/>
		</g>
		<g>
			<circle class="st0" cx="240.4" cy="-168.9" r="4.9"/>
		</g>
		<g>
			<circle class="st0" cx="261.8" cy="-168.9" r="4.9"/>
		</g>
		<g>
			<circle class="st0" cx="283.2" cy="-168.9" r="4.9"/>
		</g>
		<g>
			<circle class="st0" cx="304.6" cy="-168.9" r="4.9"/>
		</g>
	</g>
	<g>
		<g>
			<circle class="st0" cx="5.1" cy="-147.5" r="4.9"/>
		</g>
		<g>
			<circle class="st0" cx="26.5" cy="-147.5" r="4.9"/>
		</g>
		<g>
			<circle class="st0" cx="47.9" cy="-147.5" r="4.9"/>
		</g>
		<g>
			<circle class="st0" cx="69.3" cy="-147.5" r="4.9"/>
		</g>
		<g>
			<circle class="st0" cx="90.7" cy="-147.5" r="4.9"/>
		</g>
		<g>
			<circle class="st0" cx="112.1" cy="-147.5" r="4.9"/>
		</g>
		<g>
			<circle class="st0" cx="133.4" cy="-147.5" r="4.9"/>
		</g>
		<g>
			<circle class="st0" cx="154.8" cy="-147.5" r="4.9"/>
		</g>
		<g>
			<circle class="st0" cx="176.2" cy="-147.5" r="4.9"/>
		</g>
		<g>
			<circle class="st0" cx="197.6" cy="-147.5" r="4.9"/>
		</g>
		<g>
			<circle class="st0" cx="219" cy="-147.5" r="4.9"/>
		</g>
		<g>
			<circle class="st0" cx="240.4" cy="-147.5" r="4.9"/>
		</g>
		<g>
			<circle class="st0" cx="261.8" cy="-147.5" r="4.9"/>
		</g>
		<g>
			<circle class="st0" cx="283.2" cy="-147.5" r="4.9"/>
		</g>
		<g>
			<circle class="st0" cx="304.6" cy="-147.5" r="4.9"/>
		</g>
	</g>
	<g>
		<g>
			<circle class="st0" cx="5.1" cy="-126.1" r="4.9"/>
		</g>
		<g>
			<circle class="st0" cx="26.5" cy="-126.1" r="4.9"/>
		</g>
		<g>
			<circle class="st0" cx="47.9" cy="-126.1" r="4.9"/>
		</g>
		<g>
			<circle class="st0" cx="69.3" cy="-126.1" r="4.9"/>
		</g>
		<g>
			<circle class="st0" cx="90.7" cy="-126.1" r="4.9"/>
		</g>
		<g>
			<circle class="st0" cx="112.1" cy="-126.1" r="4.9"/>
		</g>
		<g>
			<circle class="st0" cx="133.4" cy="-126.1" r="4.9"/>
		</g>
		<g>
			<circle class="st0" cx="154.8" cy="-126.1" r="4.9"/>
		</g>
		<g>
			<circle class="st0" cx="176.2" cy="-126.1" r="4.9"/>
		</g>
		<g>
			<circle class="st0" cx="197.6" cy="-126.1" r="4.9"/>
		</g>
		<g>
			<circle class="st0" cx="219" cy="-126.1" r="4.9"/>
		</g>
		<g>
			<circle class="st0" cx="240.4" cy="-126.1" r="4.9"/>
		</g>
		<g>
			<circle class="st0" cx="261.8" cy="-126.1" r="4.9"/>
		</g>
		<g>
			<circle class="st0" cx="283.2" cy="-126.1" r="4.9"/>
		</g>
		<g>
			<circle class="st0" cx="304.6" cy="-126.1" r="4.9"/>
		</g>
	</g>
	<g>
		<g>
			<circle class="st0" cx="5.1" cy="-104.8" r="4.9"/>
		</g>
		<g>
			<circle class="st0" cx="26.5" cy="-104.8" r="4.9"/>
		</g>
		<g>
			<circle class="st0" cx="47.9" cy="-104.8" r="4.9"/>
		</g>
		<g>
			<circle class="st0" cx="69.3" cy="-104.8" r="4.9"/>
		</g>
		<g>
			<circle class="st0" cx="90.7" cy="-104.8" r="4.9"/>
		</g>
		<g>
			<circle class="st0" cx="112.1" cy="-104.8" r="4.9"/>
		</g>
		<g>
			<circle class="st0" cx="133.4" cy="-104.8" r="4.9"/>
		</g>
		<g>
			<circle class="st0" cx="154.8" cy="-104.8" r="4.9"/>
		</g>
		<g>
			<circle class="st0" cx="176.2" cy="-104.8" r="4.9"/>
		</g>
		<g>
			<circle class="st0" cx="197.6" cy="-104.8" r="4.9"/>
		</g>
		<g>
			<circle class="st0" cx="219" cy="-104.8" r="4.9"/>
		</g>
		<g>
			<circle class="st0" cx="240.4" cy="-104.8" r="4.9"/>
		</g>
		<g>
			<circle class="st0" cx="261.8" cy="-104.8" r="4.9"/>
		</g>
		<g>
			<circle class="st0" cx="283.2" cy="-104.8" r="4.9"/>
		</g>
		<g>
			<circle class="st0" cx="304.6" cy="-104.8" r="4.9"/>
		</g>
	</g>
	<g>
		<g>
			<circle class="st0" cx="5.1" cy="-83.3" r="4.9"/>
		</g>
		<g>
			<circle class="st0" cx="26.5" cy="-83.3" r="4.9"/>
		</g>
		<g>
			<circle class="st0" cx="47.9" cy="-83.3" r="4.9"/>
		</g>
		<g>
			<circle class="st0" cx="69.3" cy="-83.3" r="4.9"/>
		</g>
		<g>
			<circle class="st0" cx="90.7" cy="-83.3" r="4.9"/>
		</g>
		<g>
			<circle class="st0" cx="112.1" cy="-83.3" r="4.9"/>
		</g>
		<g>
			<circle class="st0" cx="133.4" cy="-83.3" r="4.9"/>
		</g>
		<g>
			<circle class="st0" cx="154.8" cy="-83.3" r="4.9"/>
		</g>
		<g>
			<circle class="st0" cx="176.2" cy="-83.3" r="4.9"/>
		</g>
		<g>
			<circle class="st0" cx="197.6" cy="-83.3" r="4.9"/>
		</g>
		<g>
			<circle class="st0" cx="219" cy="-83.3" r="4.9"/>
		</g>
		<g>
			<circle class="st0" cx="240.4" cy="-83.3" r="4.9"/>
		</g>
		<g>
			<circle class="st0" cx="261.8" cy="-83.3" r="4.9"/>
		</g>
		<g>
			<circle class="st0" cx="283.2" cy="-83.3" r="4.9"/>
		</g>
		<g>
			<circle class="st0" cx="304.6" cy="-83.3" r="4.9"/>
		</g>
	</g>
	<g>
		<g>
			<circle class="st0" cx="5.1" cy="-62" r="4.9"/>
		</g>
		<g>
			<circle class="st0" cx="26.5" cy="-62" r="4.9"/>
		</g>
		<g>
			<circle class="st0" cx="47.9" cy="-62" r="4.9"/>
		</g>
		<g>
			<circle class="st0" cx="69.3" cy="-62" r="4.9"/>
		</g>
		<g>
			<circle class="st0" cx="90.7" cy="-62" r="4.9"/>
		</g>
		<g>
			<circle class="st0" cx="112.1" cy="-62" r="4.9"/>
		</g>
		<g>
			<circle class="st0" cx="133.4" cy="-62" r="4.9"/>
		</g>
		<g>
			<circle class="st0" cx="154.8" cy="-62" r="4.9"/>
		</g>
		<g>
			<circle class="st0" cx="176.2" cy="-62" r="4.9"/>
		</g>
		<g>
			<circle class="st0" cx="197.6" cy="-62" r="4.9"/>
		</g>
		<g>
			<circle class="st0" cx="219" cy="-62" r="4.9"/>
		</g>
		<g>
			<circle class="st0" cx="240.4" cy="-62" r="4.9"/>
		</g>
		<g>
			<circle class="st0" cx="261.8" cy="-62" r="4.9"/>
		</g>
		<g>
			<circle class="st0" cx="283.2" cy="-62" r="4.9"/>
		</g>
		<g>
			<circle class="st0" cx="304.6" cy="-62" r="4.9"/>
		</g>
	</g>
	<g>
		<g>
			<circle class="st0" cx="5.1" cy="-40.6" r="4.9"/>
		</g>
		<g>
			<circle class="st0" cx="26.5" cy="-40.6" r="4.9"/>
		</g>
		<g>
			<circle class="st0" cx="47.9" cy="-40.6" r="4.9"/>
		</g>
		<g>
			<circle class="st0" cx="69.3" cy="-40.6" r="4.9"/>
		</g>
		<g>
			<circle class="st0" cx="90.7" cy="-40.6" r="4.9"/>
		</g>
		<g>
			<circle class="st0" cx="112.1" cy="-40.6" r="4.9"/>
		</g>
		<g>
			<circle class="st0" cx="133.4" cy="-40.6" r="4.9"/>
		</g>
		<g>
			<circle class="st0" cx="154.8" cy="-40.6" r="4.9"/>
		</g>
		<g>
			<circle class="st0" cx="176.2" cy="-40.6" r="4.9"/>
		</g>
		<g>
			<circle class="st0" cx="197.6" cy="-40.6" r="4.9"/>
		</g>
		<g>
			<circle class="st0" cx="219" cy="-40.6" r="4.9"/>
		</g>
		<g>
			<circle class="st0" cx="240.4" cy="-40.6" r="4.9"/>
		</g>
		<g>
			<circle class="st0" cx="261.8" cy="-40.6" r="4.9"/>
		</g>
		<g>
			<circle class="st0" cx="283.2" cy="-40.6" r="4.9"/>
		</g>
		<g>
			<circle class="st0" cx="304.6" cy="-40.6" r="4.9"/>
		</g>
	</g>
	<g>
		<g>
			<circle class="st0" cx="5.1" cy="-19.2" r="4.9"/>
		</g>
		<g>
			<circle class="st0" cx="26.5" cy="-19.2" r="4.9"/>
		</g>
		<g>
			<circle class="st0" cx="47.9" cy="-19.2" r="4.9"/>
		</g>
		<g>
			<circle class="st0" cx="69.3" cy="-19.2" r="4.9"/>
		</g>
		<g>
			<circle class="st0" cx="90.7" cy="-19.2" r="4.9"/>
		</g>
		<g>
			<circle class="st0" cx="112.1" cy="-19.2" r="4.9"/>
		</g>
		<g>
			<circle class="st0" cx="133.4" cy="-19.2" r="4.9"/>
		</g>
		<g>
			<circle class="st0" cx="154.8" cy="-19.2" r="4.9"/>
		</g>
		<g>
			<circle class="st0" cx="176.2" cy="-19.2" r="4.9"/>
		</g>
		<g>
			<circle class="st0" cx="197.6" cy="-19.2" r="4.9"/>
		</g>
		<g>
			<circle class="st0" cx="219" cy="-19.2" r="4.9"/>
		</g>
		<g>
			<circle class="st0" cx="240.4" cy="-19.2" r="4.9"/>
		</g>
		<g>
			<circle class="st0" cx="261.8" cy="-19.2" r="4.9"/>
		</g>
		<g>
			<circle class="st0" cx="283.2" cy="-19.2" r="4.9"/>
		</g>
		<g>
			<circle class="st0" cx="304.6" cy="-19.2" r="4.9"/>
		</g>
	</g>
	<g>
		<g>
			<circle class="st0" cx="5.1" cy="2.2" r="4.9"/>
		</g>
		<g>
			<circle class="st0" cx="26.5" cy="2.2" r="4.9"/>
		</g>
		<g>
			<circle class="st0" cx="47.9" cy="2.2" r="4.9"/>
		</g>
		<g>
			<circle class="st0" cx="69.3" cy="2.2" r="4.9"/>
		</g>
		<g>
			<circle class="st0" cx="90.7" cy="2.2" r="4.9"/>
		</g>
		<g>
			<circle class="st0" cx="112.1" cy="2.2" r="4.9"/>
		</g>
		<g>
			<circle class="st0" cx="133.4" cy="2.2" r="4.9"/>
		</g>
		<g>
			<circle class="st0" cx="154.8" cy="2.2" r="4.9"/>
		</g>
		<g>
			<circle class="st0" cx="176.2" cy="2.2" r="4.9"/>
		</g>
		<g>
			<circle class="st0" cx="197.6" cy="2.2" r="4.9"/>
		</g>
		<g>
			<circle class="st0" cx="219" cy="2.2" r="4.9"/>
		</g>
		<g>
			<circle class="st0" cx="240.4" cy="2.2" r="4.9"/>
		</g>
		<g>
			<circle class="st0" cx="261.8" cy="2.2" r="4.9"/>
		</g>
		<g>
			<circle class="st0" cx="283.2" cy="2.2" r="4.9"/>
		</g>
		<g>
			<circle class="st0" cx="304.6" cy="2.2" r="4.9"/>
		</g>
	</g>
	<g>
		<g>
			<circle class="st0" cx="5.1" cy="23.6" r="4.9"/>
		</g>
		<g>
			<circle class="st0" cx="26.5" cy="23.6" r="4.9"/>
		</g>
		<g>
			<circle class="st0" cx="47.9" cy="23.6" r="4.9"/>
		</g>
		<g>
			<circle class="st0" cx="69.3" cy="23.6" r="4.9"/>
		</g>
		<g>
			<circle class="st0" cx="90.7" cy="23.6" r="4.9"/>
		</g>
		<g>
			<circle class="st0" cx="112.1" cy="23.6" r="4.9"/>
		</g>
		<g>
			<circle class="st0" cx="133.4" cy="23.6" r="4.9"/>
		</g>
		<g>
			<circle class="st0" cx="154.8" cy="23.6" r="4.9"/>
		</g>
		<g>
			<circle class="st0" cx="176.2" cy="23.6" r="4.9"/>
		</g>
		<g>
			<circle class="st0" cx="197.6" cy="23.6" r="4.9"/>
		</g>
		<g>
			<circle class="st0" cx="219" cy="23.6" r="4.9"/>
		</g>
		<g>
			<circle class="st0" cx="240.4" cy="23.6" r="4.9"/>
		</g>
		<g>
			<circle class="st0" cx="261.8" cy="23.6" r="4.9"/>
		</g>
		<g>
			<circle class="st0" cx="283.2" cy="23.6" r="4.9"/>
		</g>
		<g>
			<circle class="st0" cx="304.6" cy="23.6" r="4.9"/>
		</g>
	</g>
	<g>
		<g>
			<circle class="st0" cx="5.1" cy="45" r="4.9"/>
		</g>
		<g>
			<circle class="st0" cx="26.5" cy="45" r="4.9"/>
		</g>
		<g>
			<circle class="st0" cx="47.9" cy="45" r="4.9"/>
		</g>
		<g>
			<circle class="st0" cx="69.3" cy="45" r="4.9"/>
		</g>
		<g>
			<circle class="st0" cx="90.7" cy="45" r="4.9"/>
		</g>
		<g>
			<circle class="st0" cx="112.1" cy="45" r="4.9"/>
		</g>
		<g>
			<circle class="st0" cx="133.4" cy="45" r="4.9"/>
		</g>
		<g>
			<circle class="st0" cx="154.8" cy="45" r="4.9"/>
		</g>
		<g>
			<circle class="st0" cx="176.2" cy="45" r="4.9"/>
		</g>
		<g>
			<circle class="st0" cx="197.6" cy="45" r="4.9"/>
		</g>
		<g>
			<circle class="st0" cx="219" cy="45" r="4.9"/>
		</g>
		<g>
			<circle class="st0" cx="240.4" cy="45" r="4.9"/>
		</g>
		<g>
			<circle class="st0" cx="261.8" cy="45" r="4.9"/>
		</g>
		<g>
			<circle class="st0" cx="283.2" cy="45" r="4.9"/>
		</g>
		<g>
			<circle class="st0" cx="304.6" cy="45" r="4.9"/>
		</g>
	</g>
	<g>
		<g>
			<circle class="st0" cx="5.1" cy="66.4" r="4.9"/>
		</g>
		<g>
			<circle class="st0" cx="26.5" cy="66.4" r="4.9"/>
		</g>
		<g>
			<circle class="st0" cx="47.9" cy="66.4" r="4.9"/>
		</g>
		<g>
			<circle class="st0" cx="69.3" cy="66.4" r="4.9"/>
		</g>
		<g>
			<circle class="st0" cx="90.7" cy="66.4" r="4.9"/>
		</g>
		<g>
			<circle class="st0" cx="112.1" cy="66.4" r="4.9"/>
		</g>
		<g>
			<circle class="st0" cx="133.4" cy="66.4" r="4.9"/>
		</g>
		<g>
			<circle class="st0" cx="154.8" cy="66.4" r="4.9"/>
		</g>
		<g>
			<circle class="st0" cx="176.2" cy="66.4" r="4.9"/>
		</g>
		<g>
			<circle class="st0" cx="197.6" cy="66.4" r="4.9"/>
		</g>
		<g>
			<circle class="st0" cx="219" cy="66.4" r="4.9"/>
		</g>
		<g>
			<circle class="st0" cx="240.4" cy="66.4" r="4.9"/>
		</g>
		<g>
			<circle class="st0" cx="261.8" cy="66.4" r="4.9"/>
		</g>
		<g>
			<circle class="st0" cx="283.2" cy="66.4" r="4.9"/>
		</g>
		<g>
			<circle class="st0" cx="304.6" cy="66.4" r="4.9"/>
		</g>
	</g>
	<g>
		<g>
			<circle class="st0" cx="5.1" cy="87.8" r="4.9"/>
		</g>
		<g>
			<circle class="st0" cx="26.5" cy="87.8" r="4.9"/>
		</g>
		<g>
			<circle class="st0" cx="47.9" cy="87.8" r="4.9"/>
		</g>
		<g>
			<circle class="st0" cx="69.3" cy="87.8" r="4.9"/>
		</g>
		<g>
			<circle class="st0" cx="90.7" cy="87.8" r="4.9"/>
		</g>
		<g>
			<circle class="st0" cx="112.1" cy="87.8" r="4.9"/>
		</g>
		<g>
			<circle class="st0" cx="133.4" cy="87.8" r="4.9"/>
		</g>
		<g>
			<circle class="st0" cx="154.8" cy="87.8" r="4.9"/>
		</g>
		<g>
			<circle class="st0" cx="176.2" cy="87.8" r="4.9"/>
		</g>
		<g>
			<circle class="st0" cx="197.6" cy="87.8" r="4.9"/>
		</g>
		<g>
			<circle class="st0" cx="219" cy="87.8" r="4.9"/>
		</g>
		<g>
			<circle class="st0" cx="240.4" cy="87.8" r="4.9"/>
		</g>
		<g>
			<circle class="st0" cx="261.8" cy="87.8" r="4.9"/>
		</g>
		<g>
			<circle class="st0" cx="283.2" cy="87.8" r="4.9"/>
		</g>
		<g>
			<circle class="st0" cx="304.6" cy="87.8" r="4.9"/>
		</g>
	</g>
	<g>
		<g>
			<circle class="st0" cx="5.1" cy="109.2" r="4.9"/>
		</g>
		<g>
			<circle class="st0" cx="26.5" cy="109.2" r="4.9"/>
		</g>
		<g>
			<circle class="st0" cx="47.9" cy="109.2" r="4.9"/>
		</g>
		<g>
			<circle class="st0" cx="69.3" cy="109.2" r="4.9"/>
		</g>
		<g>
			<circle class="st0" cx="90.7" cy="109.2" r="4.9"/>
		</g>
		<g>
			<circle class="st0" cx="112.1" cy="109.2" r="4.9"/>
		</g>
		<g>
			<circle class="st0" cx="133.4" cy="109.2" r="4.9"/>
		</g>
		<g>
			<circle class="st0" cx="154.8" cy="109.2" r="4.9"/>
		</g>
		<g>
			<circle class="st0" cx="176.2" cy="109.2" r="4.9"/>
		</g>
		<g>
			<circle class="st0" cx="197.6" cy="109.2" r="4.9"/>
		</g>
		<g>
			<circle class="st0" cx="219" cy="109.2" r="4.9"/>
		</g>
		<g>
			<circle class="st0" cx="240.4" cy="109.2" r="4.9"/>
		</g>
		<g>
			<circle class="st0" cx="261.8" cy="109.2" r="4.9"/>
		</g>
		<g>
			<circle class="st0" cx="283.2" cy="109.2" r="4.9"/>
		</g>
		<g>
			<circle class="st0" cx="304.6" cy="109.2" r="4.9"/>
		</g>
	</g>
	<g>
		<g>
			<circle class="st0" cx="5.1" cy="130.6" r="4.9"/>
		</g>
		<g>
			<circle class="st0" cx="26.5" cy="130.6" r="4.9"/>
		</g>
		<g>
			<circle class="st0" cx="47.9" cy="130.6" r="4.9"/>
		</g>
		<g>
			<circle class="st0" cx="69.3" cy="130.6" r="4.9"/>
		</g>
		<g>
			<circle class="st0" cx="90.7" cy="130.6" r="4.9"/>
		</g>
		<g>
			<circle class="st0" cx="112.1" cy="130.6" r="4.9"/>
		</g>
		<g>
			<circle class="st0" cx="133.4" cy="130.6" r="4.9"/>
		</g>
		<g>
			<circle class="st0" cx="154.8" cy="130.6" r="4.9"/>
		</g>
		<g>
			<circle class="st0" cx="176.2" cy="130.6" r="4.9"/>
		</g>
		<g>
			<circle class="st0" cx="197.6" cy="130.6" r="4.9"/>
		</g>
		<g>
			<circle class="st0" cx="219" cy="130.6" r="4.9"/>
		</g>
		<g>
			<circle class="st0" cx="240.4" cy="130.6" r="4.9"/>
		</g>
		<g>
			<circle class="st0" cx="261.8" cy="130.6" r="4.9"/>
		</g>
		<g>
			<circle class="st0" cx="283.2" cy="130.6" r="4.9"/>
		</g>
		<g>
			<circle class="st0" cx="304.6" cy="130.6" r="4.9"/>
		</g>
	</g>
	<g>
		<g>
			<circle class="st0" cx="5.1" cy="152" r="4.9"/>
		</g>
		<g>
			<circle class="st0" cx="26.5" cy="152" r="4.9"/>
		</g>
		<g>
			<circle class="st0" cx="47.9" cy="152" r="4.9"/>
		</g>
		<g>
			<circle class="st0" cx="69.3" cy="152" r="4.9"/>
		</g>
		<g>
			<circle class="st0" cx="90.7" cy="152" r="4.9"/>
		</g>
		<g>
			<circle class="st0" cx="112.1" cy="152" r="4.9"/>
		</g>
		<g>
			<circle class="st0" cx="133.4" cy="152" r="4.9"/>
		</g>
		<g>
			<circle class="st0" cx="154.8" cy="152" r="4.9"/>
		</g>
		<g>
			<circle class="st0" cx="176.2" cy="152" r="4.9"/>
		</g>
		<g>
			<circle class="st0" cx="197.6" cy="152" r="4.9"/>
		</g>
		<g>
			<circle class="st0" cx="219" cy="152" r="4.9"/>
		</g>
		<g>
			<circle class="st0" cx="240.4" cy="152" r="4.9"/>
		</g>
		<g>
			<circle class="st0" cx="261.8" cy="152" r="4.9"/>
		</g>
		<g>
			<circle class="st0" cx="283.2" cy="152" r="4.9"/>
		</g>
		<g>
			<circle class="st0" cx="304.6" cy="152" r="4.9"/>
		</g>
	</g>
	<g>
		<g>
			<circle class="st0" cx="5.1" cy="173.4" r="4.9"/>
		</g>
		<g>
			<circle class="st0" cx="26.5" cy="173.4" r="4.9"/>
		</g>
		<g>
			<circle class="st0" cx="47.9" cy="173.4" r="4.9"/>
		</g>
		<g>
			<circle class="st0" cx="69.3" cy="173.4" r="4.9"/>
		</g>
		<g>
			<circle class="st0" cx="90.7" cy="173.4" r="4.9"/>
		</g>
		<g>
			<circle class="st0" cx="112.1" cy="173.4" r="4.9"/>
		</g>
		<g>
			<circle class="st0" cx="133.4" cy="173.4" r="4.9"/>
		</g>
		<g>
			<circle class="st0" cx="154.8" cy="173.4" r="4.9"/>
		</g>
		<g>
			<circle class="st0" cx="176.2" cy="173.4" r="4.9"/>
		</g>
		<g>
			<circle class="st0" cx="197.6" cy="173.4" r="4.9"/>
		</g>
		<g>
			<circle class="st0" cx="219" cy="173.4" r="4.9"/>
		</g>
		<g>
			<circle class="st0" cx="240.4" cy="173.4" r="4.9"/>
		</g>
		<g>
			<circle class="st0" cx="261.8" cy="173.4" r="4.9"/>
		</g>
		<g>
			<circle class="st0" cx="283.2" cy="173.4" r="4.9"/>
		</g>
		<g>
			<circle class="st0" cx="304.6" cy="173.4" r="4.9"/>
		</g>
	</g>
	<g>
		<g>
			<circle class="st0" cx="5.1" cy="194.8" r="4.9"/>
		</g>
		<g>
			<circle class="st0" cx="26.5" cy="194.8" r="4.9"/>
		</g>
		<g>
			<circle class="st0" cx="47.9" cy="194.8" r="4.9"/>
		</g>
		<g>
			<circle class="st0" cx="69.3" cy="194.8" r="4.9"/>
		</g>
		<g>
			<circle class="st0" cx="90.7" cy="194.8" r="4.9"/>
		</g>
		<g>
			<circle class="st0" cx="112.1" cy="194.8" r="4.9"/>
		</g>
		<g>
			<circle class="st0" cx="133.4" cy="194.8" r="4.9"/>
		</g>
		<g>
			<circle class="st0" cx="154.8" cy="194.8" r="4.9"/>
		</g>
		<g>
			<circle class="st0" cx="176.2" cy="194.8" r="4.9"/>
		</g>
		<g>
			<circle class="st0" cx="197.6" cy="194.8" r="4.9"/>
		</g>
		<g>
			<circle class="st0" cx="219" cy="194.8" r="4.9"/>
		</g>
		<g>
			<circle class="st0" cx="240.4" cy="194.8" r="4.9"/>
		</g>
		<g>
			<circle class="st0" cx="261.8" cy="194.8" r="4.9"/>
		</g>
		<g>
			<circle class="st0" cx="283.2" cy="194.8" r="4.9"/>
		</g>
		<g>
			<circle class="st0" cx="304.6" cy="194.8" r="4.9"/>
		</g>
	</g>
	<g>
		<g>
			<circle class="st0" cx="5.1" cy="216.1" r="4.9"/>
		</g>
		<g>
			<circle class="st0" cx="26.5" cy="216.1" r="4.9"/>
		</g>
		<g>
			<circle class="st0" cx="47.9" cy="216.1" r="4.9"/>
		</g>
		<g>
			<circle class="st0" cx="69.3" cy="216.1" r="4.9"/>
		</g>
		<g>
			<circle class="st0" cx="90.7" cy="216.1" r="4.9"/>
		</g>
		<g>
			<circle class="st0" cx="112.1" cy="216.1" r="4.9"/>
		</g>
		<g>
			<circle class="st0" cx="133.4" cy="216.1" r="4.9"/>
		</g>
		<g>
			<circle class="st0" cx="154.8" cy="216.1" r="4.9"/>
		</g>
		<g>
			<circle class="st0" cx="176.2" cy="216.1" r="4.9"/>
		</g>
		<g>
			<circle class="st0" cx="197.6" cy="216.1" r="4.9"/>
		</g>
		<g>
			<circle class="st0" cx="219" cy="216.1" r="4.9"/>
		</g>
		<g>
			<circle class="st0" cx="240.4" cy="216.1" r="4.9"/>
		</g>
		<g>
			<circle class="st0" cx="261.8" cy="216.1" r="4.9"/>
		</g>
		<g>
			<circle class="st0" cx="283.2" cy="216.1" r="4.9"/>
		</g>
		<g>
			<circle class="st0" cx="304.6" cy="216.1" r="4.9"/>
		</g>
	</g>
	<g>
		<g>
			<circle class="st0" cx="5.1" cy="237.5" r="4.9"/>
		</g>
		<g>
			<circle class="st0" cx="26.5" cy="237.5" r="4.9"/>
		</g>
		<g>
			<circle class="st0" cx="47.9" cy="237.5" r="4.9"/>
		</g>
		<g>
			<circle class="st0" cx="69.3" cy="237.5" r="4.9"/>
		</g>
		<g>
			<circle class="st0" cx="90.7" cy="237.5" r="4.9"/>
		</g>
		<g>
			<circle class="st0" cx="112.1" cy="237.5" r="4.9"/>
		</g>
		<g>
			<circle class="st0" cx="133.4" cy="237.5" r="4.9"/>
		</g>
		<g>
			<circle class="st0" cx="154.8" cy="237.5" r="4.9"/>
		</g>
		<g>
			<circle class="st0" cx="176.2" cy="237.5" r="4.9"/>
		</g>
		<g>
			<circle class="st0" cx="197.6" cy="237.5" r="4.9"/>
		</g>
		<g>
			<circle class="st0" cx="219" cy="237.5" r="4.9"/>
		</g>
		<g>
			<circle class="st0" cx="240.4" cy="237.5" r="4.9"/>
		</g>
		<g>
			<circle class="st0" cx="261.8" cy="237.5" r="4.9"/>
		</g>
		<g>
			<circle class="st0" cx="283.2" cy="237.5" r="4.9"/>
		</g>
		<g>
			<circle class="st0" cx="304.6" cy="237.5" r="4.9"/>
		</g>
	</g>
	<g>
		<g>
			<circle class="st0" cx="5.1" cy="258.9" r="4.9"/>
		</g>
		<g>
			<circle class="st0" cx="26.5" cy="258.9" r="4.9"/>
		</g>
		<g>
			<circle class="st0" cx="47.9" cy="258.9" r="4.9"/>
		</g>
		<g>
			<circle class="st0" cx="69.3" cy="258.9" r="4.9"/>
		</g>
		<g>
			<circle class="st0" cx="90.7" cy="258.9" r="4.9"/>
		</g>
		<g>
			<circle class="st0" cx="112.1" cy="258.9" r="4.9"/>
		</g>
		<g>
			<circle class="st0" cx="133.4" cy="258.9" r="4.9"/>
		</g>
		<g>
			<circle class="st0" cx="154.8" cy="258.9" r="4.9"/>
		</g>
		<g>
			<circle class="st0" cx="176.2" cy="258.9" r="4.9"/>
		</g>
		<g>
			<circle class="st0" cx="197.6" cy="258.9" r="4.9"/>
		</g>
		<g>
			<circle class="st0" cx="219" cy="258.9" r="4.9"/>
		</g>
		<g>
			<circle class="st0" cx="240.4" cy="258.9" r="4.9"/>
		</g>
		<g>
			<circle class="st0" cx="261.8" cy="258.9" r="4.9"/>
		</g>
		<g>
			<circle class="st0" cx="283.2" cy="258.9" r="4.9"/>
		</g>
		<g>
			<circle class="st0" cx="304.6" cy="258.9" r="4.9"/>
		</g>
	</g>
	<g>
		<g>
			<circle class="st0" cx="5.1" cy="280.3" r="4.9"/>
		</g>
		<g>
			<circle class="st0" cx="26.5" cy="280.3" r="4.9"/>
		</g>
		<g>
			<circle class="st0" cx="47.9" cy="280.3" r="4.9"/>
		</g>
		<g>
			<circle class="st0" cx="69.3" cy="280.3" r="4.9"/>
		</g>
		<g>
			<circle class="st0" cx="90.7" cy="280.3" r="4.9"/>
		</g>
		<g>
			<circle class="st0" cx="112.1" cy="280.3" r="4.9"/>
		</g>
		<g>
			<circle class="st0" cx="133.4" cy="280.3" r="4.9"/>
		</g>
		<g>
			<circle class="st0" cx="154.8" cy="280.3" r="4.9"/>
		</g>
		<g>
			<circle class="st0" cx="176.2" cy="280.3" r="4.9"/>
		</g>
		<g>
			<circle class="st0" cx="197.6" cy="280.3" r="4.9"/>
		</g>
		<g>
			<circle class="st0" cx="219" cy="280.3" r="4.9"/>
		</g>
		<g>
			<circle class="st0" cx="240.4" cy="280.3" r="4.9"/>
		</g>
		<g>
			<circle class="st0" cx="261.8" cy="280.3" r="4.9"/>
		</g>
		<g>
			<circle class="st0" cx="283.2" cy="280.3" r="4.9"/>
		</g>
		<g>
			<circle class="st0" cx="304.6" cy="280.3" r="4.9"/>
		</g>
	</g>
	<g>
		<g>
			<circle class="st0" cx="5.1" cy="301.7" r="4.9"/>
		</g>
		<g>
			<circle class="st0" cx="26.5" cy="301.7" r="4.9"/>
		</g>
		<g>
			<circle class="st0" cx="47.9" cy="301.7" r="4.9"/>
		</g>
		<g>
			<circle class="st0" cx="69.3" cy="301.7" r="4.9"/>
		</g>
		<g>
			<circle class="st0" cx="90.7" cy="301.7" r="4.9"/>
		</g>
		<g>
			<circle class="st0" cx="112.1" cy="301.7" r="4.9"/>
		</g>
		<g>
			<circle class="st0" cx="133.4" cy="301.7" r="4.9"/>
		</g>
		<g>
			<circle class="st0" cx="154.8" cy="301.7" r="4.9"/>
		</g>
		<g>
			<circle class="st0" cx="176.2" cy="301.7" r="4.9"/>
		</g>
		<g>
			<circle class="st0" cx="197.6" cy="301.7" r="4.9"/>
		</g>
		<g>
			<circle class="st0" cx="219" cy="301.7" r="4.9"/>
		</g>
		<g>
			<circle class="st0" cx="240.4" cy="301.7" r="4.9"/>
		</g>
		<g>
			<circle class="st0" cx="261.8" cy="301.7" r="4.9"/>
		</g>
		<g>
			<circle class="st0" cx="283.2" cy="301.7" r="4.9"/>
		</g>
		<g>
			<circle class="st0" cx="304.6" cy="301.7" r="4.9"/>
		</g>
	</g>
	<g>
		<g>
			<circle class="st0" cx="5.1" cy="323.1" r="4.9"/>
		</g>
		<g>
			<circle class="st0" cx="26.5" cy="323.1" r="4.9"/>
		</g>
		<g>
			<circle class="st0" cx="47.9" cy="323.1" r="4.9"/>
		</g>
		<g>
			<circle class="st0" cx="69.3" cy="323.1" r="4.9"/>
		</g>
		<g>
			<circle class="st0" cx="90.7" cy="323.1" r="4.9"/>
		</g>
		<g>
			<circle class="st0" cx="112.1" cy="323.1" r="4.9"/>
		</g>
		<g>
			<circle class="st0" cx="133.4" cy="323.1" r="4.9"/>
		</g>
		<g>
			<circle class="st0" cx="154.8" cy="323.1" r="4.9"/>
		</g>
		<g>
			<circle class="st0" cx="176.2" cy="323.1" r="4.9"/>
		</g>
		<g>
			<circle class="st0" cx="197.6" cy="323.1" r="4.9"/>
		</g>
		<g>
			<circle class="st0" cx="219" cy="323.1" r="4.9"/>
		</g>
		<g>
			<circle class="st0" cx="240.4" cy="323.1" r="4.9"/>
		</g>
		<g>
			<circle class="st0" cx="261.8" cy="323.1" r="4.9"/>
		</g>
		<g>
			<circle class="st0" cx="283.2" cy="323.1" r="4.9"/>
		</g>
		<g>
			<circle class="st0" cx="304.6" cy="323.1" r="4.9"/>
		</g>
	</g>
	<g>
		<g>
			<circle class="st0" cx="5.1" cy="344.5" r="4.9"/>
		</g>
		<g>
			<circle class="st0" cx="26.5" cy="344.5" r="4.9"/>
		</g>
		<g>
			<circle class="st0" cx="47.9" cy="344.5" r="4.9"/>
		</g>
		<g>
			<circle class="st0" cx="69.3" cy="344.5" r="4.9"/>
		</g>
		<g>
			<circle class="st0" cx="90.7" cy="344.5" r="4.9"/>
		</g>
		<g>
			<circle class="st0" cx="112.1" cy="344.5" r="4.9"/>
		</g>
		<g>
			<circle class="st0" cx="133.4" cy="344.5" r="4.9"/>
		</g>
		<g>
			<circle class="st0" cx="154.8" cy="344.5" r="4.9"/>
		</g>
		<g>
			<circle class="st0" cx="176.2" cy="344.5" r="4.9"/>
		</g>
		<g>
			<circle class="st0" cx="197.6" cy="344.5" r="4.9"/>
		</g>
		<g>
			<circle class="st0" cx="219" cy="344.5" r="4.9"/>
		</g>
		<g>
			<circle class="st0" cx="240.4" cy="344.5" r="4.9"/>
		</g>
		<g>
			<circle class="st0" cx="261.8" cy="344.5" r="4.9"/>
		</g>
		<g>
			<circle class="st0" cx="283.2" cy="344.5" r="4.9"/>
		</g>
		<g>
			<circle class="st0" cx="304.6" cy="344.5" r="4.9"/>
		</g>
	</g>
	<g>
		<g>
			<circle class="st0" cx="5.1" cy="365.9" r="4.9"/>
		</g>
		<g>
			<circle class="st0" cx="26.5" cy="365.9" r="4.9"/>
		</g>
		<g>
			<circle class="st0" cx="47.9" cy="365.9" r="4.9"/>
		</g>
		<g>
			<circle class="st0" cx="69.3" cy="365.9" r="4.9"/>
		</g>
		<g>
			<circle class="st0" cx="90.7" cy="365.9" r="4.9"/>
		</g>
		<g>
			<circle class="st0" cx="112.1" cy="365.9" r="4.9"/>
		</g>
		<g>
			<circle class="st0" cx="133.4" cy="365.9" r="4.9"/>
		</g>
		<g>
			<circle class="st0" cx="154.8" cy="365.9" r="4.9"/>
		</g>
		<g>
			<circle class="st0" cx="176.2" cy="365.9" r="4.9"/>
		</g>
		<g>
			<circle class="st0" cx="197.6" cy="365.9" r="4.9"/>
		</g>
		<g>
			<circle class="st0" cx="219" cy="365.9" r="4.9"/>
		</g>
		<g>
			<circle class="st0" cx="240.4" cy="365.9" r="4.9"/>
		</g>
		<g>
			<circle class="st0" cx="261.8" cy="365.9" r="4.9"/>
		</g>
		<g>
			<circle class="st0" cx="283.2" cy="365.9" r="4.9"/>
		</g>
		<g>
			<circle class="st0" cx="304.6" cy="365.9" r="4.9"/>
		</g>
	</g>
	<g>
		<g>
			<circle class="st0" cx="5.1" cy="387.3" r="4.9"/>
		</g>
		<g>
			<circle class="st0" cx="26.5" cy="387.3" r="4.9"/>
		</g>
		<g>
			<circle class="st0" cx="47.9" cy="387.3" r="4.9"/>
		</g>
		<g>
			<circle class="st0" cx="69.3" cy="387.3" r="4.9"/>
		</g>
		<g>
			<circle class="st0" cx="90.7" cy="387.3" r="4.9"/>
		</g>
		<g>
			<circle class="st0" cx="112.1" cy="387.3" r="4.9"/>
		</g>
		<g>
			<circle class="st0" cx="133.4" cy="387.3" r="4.9"/>
		</g>
		<g>
			<circle class="st0" cx="154.8" cy="387.3" r="4.9"/>
		</g>
		<g>
			<circle class="st0" cx="176.2" cy="387.3" r="4.9"/>
		</g>
		<g>
			<circle class="st0" cx="197.6" cy="387.3" r="4.9"/>
		</g>
		<g>
			<circle class="st0" cx="219" cy="387.3" r="4.9"/>
		</g>
		<g>
			<circle class="st0" cx="240.4" cy="387.3" r="4.9"/>
		</g>
		<g>
			<circle class="st0" cx="261.8" cy="387.3" r="4.9"/>
		</g>
		<g>
			<circle class="st0" cx="283.2" cy="387.3" r="4.9"/>
		</g>
		<g>
			<circle class="st0" cx="304.6" cy="387.3" r="4.9"/>
		</g>
	</g>
	<g>
		<g>
			<circle class="st0" cx="5.1" cy="408.7" r="4.9"/>
		</g>
		<g>
			<circle class="st0" cx="26.5" cy="408.7" r="4.9"/>
		</g>
		<g>
			<circle class="st0" cx="47.9" cy="408.7" r="4.9"/>
		</g>
		<g>
			<circle class="st0" cx="69.3" cy="408.7" r="4.9"/>
		</g>
		<g>
			<circle class="st0" cx="90.7" cy="408.7" r="4.9"/>
		</g>
		<g>
			<circle class="st0" cx="112.1" cy="408.7" r="4.9"/>
		</g>
		<g>
			<circle class="st0" cx="133.4" cy="408.7" r="4.9"/>
		</g>
		<g>
			<circle class="st0" cx="154.8" cy="408.7" r="4.9"/>
		</g>
		<g>
			<circle class="st0" cx="176.2" cy="408.7" r="4.9"/>
		</g>
		<g>
			<circle class="st0" cx="197.6" cy="408.7" r="4.9"/>
		</g>
		<g>
			<circle class="st0" cx="219" cy="408.7" r="4.9"/>
		</g>
		<g>
			<circle class="st0" cx="240.4" cy="408.7" r="4.9"/>
		</g>
		<g>
			<circle class="st0" cx="261.8" cy="408.7" r="4.9"/>
		</g>
		<g>
			<circle class="st0" cx="283.2" cy="408.7" r="4.9"/>
		</g>
		<g>
			<circle class="st0" cx="304.6" cy="408.7" r="4.9"/>
		</g>
	</g>
</g>
<rect x="-135.5" class="st0" width="9.9" height="413.6"/>
<rect x="-119" class="st0" width="40" height="413.6"/>
<rect x="87.1" class="st1" width="222.9" height="413.6"/>
</svg>
